<svg xmlns="http://www.w3.org/2000/svg" viewBox="0 0 175.216 175.552">
  <defs>
    <linearGradient id="b" x1="85.915" x2="86.535" y1="32.567" y2="137.092" gradientUnits="userSpaceOnUse">
      <stop offset="0" stop-color="#57d163"/>
      <stop offset="1" stop-color="#23b33a"/>
    </linearGradient>
    <filter id="a" width="1.115" height="1.114" x="-.057" y="-.057" color-interpolation-filters="sRGB">
      <feGaussianBlur stdDeviation="3.531"/>
    </filter>
  </defs>
  <path fill="#b3b3b3" d="m54.532 138.45 2.235 1.324c9.387 5.571 20.15 8.518 31.126 8.523h.023c33.707 0 61.139-27.426 61.153-61.135.006-16.335-6.349-31.696-17.895-43.251A60.75 60.75 0 0 0 87.94 25.983c-33.733 0-61.166 27.423-61.178 61.13a60.98 60.98 0 0 0 9.349 32.535l1.455 2.312-6.179 22.558zm-40.811 23.544L24.16 123.88c-6.438-11.154-9.825-23.808-9.821-36.772.013-40.556 33.021-73.55 73.578-73.55 19.681.01 38.154 7.669 52.047 21.572s21.537 32.383 21.53 52.037c-.013 40.557-33.02 73.551-73.578 73.551h-.032c-12.313-.005-24.412-3.094-35.159-8.954zm0 0" filter="url(#a)"/>
  <path fill="#fff" d="m12.966 161.238 10.439-38.114c-6.378-11.039-9.73-23.597-9.726-36.458.013-40.225 32.758-72.956 73.007-72.956 19.526.009 37.854 7.625 51.64 21.425 13.783 13.8 21.384 32.14 21.378 51.644-.013 40.227-32.759 72.957-73.006 72.957h-.032c-12.209-.004-24.217-3.042-34.87-8.886zm5.738-33.662 2.249 1.334c9.312 5.523 19.912 8.441 30.777 8.446h.023c33.357 0 60.482-27.12 60.496-60.473.006-16.164-6.29-31.342-17.755-42.818C82.551 22.588 67.379 16.292 51.227 16.286c-33.384 0-60.513 27.118-60.526 60.472a60.47 60.47 0 0 0 9.26 32.198l1.463 2.327-6.216 22.693z"/>
  <path fill="url(#linearGradient1780)" d="M87.184 25.227c-33.733 0-61.166 27.423-61.178 61.13a60.98 60.98 0 0 0 9.349 32.535l1.455 2.312-6.179 22.559 23.146-6.069 2.235 1.324c9.387 5.571 20.15 8.517 31.126 8.522h.023c33.707 0 61.14-27.426 61.153-61.135.006-16.335-6.349-31.696-17.895-43.251A60.75 60.75 0 0 0 87.184 25.227z"/>
  <path fill="url(#b)" d="M87.184 25.227c-33.733 0-61.166 27.423-61.178 61.13a60.98 60.98 0 0 0 9.349 32.535l1.455 2.313-6.179 22.558 23.146-6.069 2.235 1.324c9.387 5.571 20.15 8.517 31.126 8.522h.023c33.707 0 61.14-27.426 61.153-61.135.006-16.335-6.349-31.696-17.895-43.251A60.75 60.75 0 0 0 87.184 25.227z"/>
  <path fill="#fff" fill-rule="evenodd" d="M68.772 55.603c-1.378-3.061-2.828-3.123-4.137-3.176l-3.524-.043c-1.226 0-3.218.460-4.902 2.3s-6.435 6.287-6.435 15.332 6.588 17.785 7.506 19.013 12.718 20.381 31.405 27.75c15.529 6.124 18.689 4.906 22.061 4.6s10.577-4.324 12.08-8.499 1.503-7.867 1.053-8.6-.408-.612-1.429-1.073-6.588-3.249-7.609-3.616-.408-.612-1.378.153-5.841 6.58-7.15 7.939-1.426.459-2.447-.153-9.63-3.552-18.326-11.307c-6.777-6.049-11.37-13.523-12.718-14.739s-.153-1.992.408-2.606c.384-.564 1.049-1.334 1.503-1.971.454-.637.408-.918.612-1.53.204-.612.102-.918-.051-1.226-.153-.307-3.164-7.784-4.34-10.57z"/>
</svg>